<?xml version="1.0" standalone="no"?>
<!DOCTYPE svg PUBLIC "-//W3C//DTD SVG 20010904//EN"
 "http://www.w3.org/TR/2001/REC-SVG-20010904/DTD/svg10.dtd">
<svg version="1.0" xmlns="http://www.w3.org/2000/svg"
 width="968.000000pt" height="968.000000pt" viewBox="0 0 968.000000 968.000000"
 preserveAspectRatio="xMidYMid meet">
<metadata>
Created by potrace 1.11, written by Peter Selinger 2001-2013
</metadata>
<g transform="translate(0.000000,968.000000) scale(0.100000,-0.100000)"
fill="#000000" stroke="none">
<path d="M4435 9330 c-478 -48 -851 -136 -1260 -297 -1045 -413 -1919 -1225
-2406 -2238 -217 -451 -347 -887 -408 -1370 -28 -216 -33 -312 -33 -580 0
-268 5 -364 33 -580 61 -483 191 -919 408 -1370 390 -812 1036 -1506 1822
-1956 1061 -609 2322 -760 3490 -418 211 61 234 69 414 140 1041 412 1914
1228 2401 2244 212 444 342 882 403 1360 28 216 33 312 33 580 0 268 -5 364
-33 580 -61 478 -191 916 -403 1360 -440 917 -1198 1677 -2110 2116 -737 353
-1574 506 -2351 429z m779 -170 c283 -32 411 -53 631 -106 506 -120 1016 -349
1452 -651 870 -604 1490 -1502 1741 -2518 16 -66 35 -149 41 -185 7 -36 16
-83 21 -105 5 -22 12 -65 15 -95 3 -30 8 -62 10 -70 19 -63 35 -340 35 -585 0
-245 -16 -522 -35 -585 -2 -8 -7 -40 -10 -70 -3 -30 -10 -73 -15 -95 -5 -22
-14 -69 -21 -105 -6 -36 -25 -119 -41 -185 -304 -1234 -1146 -2276 -2298
-2844 -487 -240 -948 -370 -1532 -431 -125 -13 -631 -13 -756 0 -358 37 -635
93 -927 186 -1441 460 -2544 1634 -2903 3089 -16 66 -35 149 -41 185 -7 36
-16 83 -21 105 -5 22 -12 65 -15 95 -3 30 -8 62 -10 70 -19 63 -35 340 -35
585 0 245 16 522 35 585 2 8 7 40 10 70 3 30 10 73 15 95 5 22 14 69 21 105 6
36 25 119 41 185 355 1441 1444 2611 2863 3076 248 81 551 150 790 179 50 6
122 14 160 19 101 12 673 13 779 1z"/>
<path d="M4535 9114 c-728 -53 -1425 -286 -2030 -679 -259 -168 -476 -345
-710 -580 -465 -466 -806 -1013 -1021 -1640 -98 -283 -155 -539 -206 -925 -17
-129 -17 -761 0 -890 63 -475 146 -800 295 -1165 369 -900 1032 -1648 1885
-2127 412 -232 924 -411 1378 -483 16 -3 56 -9 89 -15 183 -29 288 -35 615
-35 327 0 432 6 615 35 33 6 73 12 89 15 454 72 966 251 1378 483 866 487
1530 1243 1898 2162 204 509 299 1013 299 1575 0 564 -95 1062 -301 1580 -325
817 -910 1528 -1653 2010 -551 358 -1145 572 -1830 661 -114 14 -665 27 -790
18z m391 -284 c77 -5 156 -13 175 -16 101 -20 195 -93 238 -184 22 -49 25 -68
26 -170 0 -110 -2 -118 -32 -181 -51 -104 -119 -161 -223 -189 -35 -10 -82
-10 -215 0 -93 6 -186 15 -205 19 l-35 7 3 90 c1 49 9 161 17 249 7 88 17 198
20 245 3 47 9 100 12 118 5 32 7 33 42 28 20 -4 99 -11 177 -16z m-624 -79
c62 -24 147 -94 183 -150 63 -102 73 -246 23 -353 -64 -137 -218 -237 -364
-238 -62 0 -163 35 -224 77 -148 103 -203 309 -126 467 49 100 155 189 261
217 53 14 186 3 247 -20z m1749 -97 c46 -19 85 -37 87 -38 3 -4 -30 -89 -64
-163 -46 -101 -51 -92 91 -153 72 -30 129 -49 134 -44 4 5 27 56 51 114 24 58
49 111 55 117 8 10 28 6 90 -20 43 -19 81 -39 82 -44 4 -11 -262 -651 -277
-666 -6 -7 -180 59 -180 68 0 2 22 56 50 121 27 65 46 122 42 126 -17 17 -246
108 -253 101 -3 -5 -28 -59 -54 -120 -26 -62 -51 -113 -55 -113 -12 0 -154 61
-164 70 -9 9 5 46 94 255 29 66 69 161 90 210 54 130 92 215 95 215 2 0 41
-16 86 -36z m-2584 -183 c83 -39 149 -102 190 -181 26 -50 28 -64 28 -160 -1
-95 -4 -111 -30 -165 -35 -74 -116 -154 -188 -189 -187 -88 -410 -17 -505 162
-173 324 171 687 505 533z m3595 -319 c86 -42 149 -105 190 -190 30 -61 33
-75 33 -162 0 -82 -4 -103 -27 -152 -37 -80 -107 -152 -187 -191 -61 -30 -73
-32 -166 -32 -93 1 -105 3 -167 34 -237 118 -298 432 -120 614 90 92 154 118
287 114 80 -2 99 -6 157 -35z m-4403 -98 c17 -4 31 -12 31 -18 0 -6 -12 -48
-27 -93 l-28 -83 -49 0 c-192 0 -267 -234 -109 -344 61 -42 122 -45 193 -9 42
22 59 38 77 73 22 44 31 100 16 100 -5 0 -37 -23 -72 -50 -35 -27 -67 -47 -72
-44 -14 8 -89 112 -89 122 0 5 63 57 139 115 l140 106 54 -72 c30 -40 89 -117
131 -171 41 -54 73 -102 71 -106 -2 -4 -29 -26 -60 -50 l-55 -42 -18 22 -19
23 -7 -34 c-18 -91 -123 -176 -252 -205 -64 -14 -85 -14 -137 -4 -130 25 -241
110 -294 224 -24 53 -28 73 -27 152 1 99 21 157 83 241 77 106 251 173 380
147z m2311 -194 c189 -13 232 -18 370 -41 900 -154 1692 -722 2138 -1534 150
-272 276 -635 321 -925 6 -36 16 -99 23 -140 17 -103 17 -617 0 -730 -38 -251
-65 -368 -128 -562 -195 -597 -552 -1092 -1079 -1493 -287 -219 -708 -416
-1075 -503 -157 -38 -182 -42 -390 -67 -253 -31 -640 -15 -895 36 -617 125
-1142 411 -1580 860 -153 157 -235 257 -350 429 -257 384 -410 785 -482 1261
-24 162 -24 646 0 807 100 663 375 1221 832 1691 461 474 1010 760 1680 876
106 19 156 23 450 43 11 1 85 -3 165 -8z m2701 -206 c30 -36 55 -69 57 -73 2
-5 -54 -55 -124 -112 -156 -127 -222 -187 -236 -213 -17 -31 -11 -95 12 -132
28 -44 96 -77 137 -65 44 13 72 29 123 72 145 124 265 219 275 219 15 -1 116
-131 113 -146 -6 -26 -331 -285 -398 -318 -127 -61 -256 -33 -363 77 -75 77
-101 134 -105 234 -7 139 28 192 237 363 165 136 195 159 207 159 5 1 35 -29
65 -65z m-5828 -447 c61 -26 62 -36 7 -113 -50 -68 -51 -69 -97 -69 -41 -1
-50 -5 -80 -40 -38 -44 -43 -97 -11 -103 9 -2 62 27 118 64 119 78 181 104
253 104 81 0 167 -66 188 -144 44 -162 -152 -427 -315 -426 -45 0 -126 32
-126 50 0 7 21 43 48 80 44 65 50 69 84 70 29 0 45 8 71 33 44 45 64 92 47
112 -18 22 -40 13 -157 -66 -125 -83 -196 -108 -263 -90 -116 31 -188 147
-161 257 41 161 180 294 308 294 30 0 68 -6 86 -13z m6324 -269 c88 -41 158
-135 189 -253 18 -65 17 -103 -1 -156 -17 -48 -89 -129 -115 -129 -15 0 -90
131 -90 158 0 7 7 20 15 28 39 39 -3 159 -55 159 -28 0 -27 16 -19 -240 3
-101 1 -114 -22 -160 -48 -96 -167 -140 -264 -99 -87 36 -180 172 -205 301
-18 89 -1 151 56 210 23 25 49 43 56 41 7 -2 32 -40 55 -84 36 -69 40 -81 27
-95 -20 -23 -17 -68 9 -119 25 -50 46 -66 72 -56 15 5 16 15 11 74 -25 266
-19 309 49 377 65 66 150 82 232 43z m-6735 -355 c68 -42 129 -82 136 -88 11
-10 8 -22 -14 -68 -16 -32 -32 -57 -36 -57 -12 0 -291 112 -302 121 -9 8 71
169 85 169 4 0 63 -34 131 -77z m-192 -258 c41 -14 78 -29 82 -33 5 -5 -7 -53
-26 -108 -19 -54 -31 -102 -28 -105 4 -4 117 -44 252 -89 135 -46 247 -85 249
-87 9 -7 -53 -183 -65 -183 -6 0 -123 38 -260 85 -136 46 -249 83 -250 82 -1
-1 -16 -46 -33 -99 -18 -54 -36 -100 -41 -103 -5 -3 -46 7 -92 23 -60 21 -83
33 -82 45 3 36 200 597 210 597 6 0 44 -11 84 -25z m7324 -82 c15 -54 41 -147
58 -208 17 -60 43 -155 59 -210 15 -55 25 -103 21 -107 -7 -7 -107 -37 -153
-45 -24 -5 -28 -1 -42 44 -8 26 -21 71 -27 98 -7 28 -16 53 -19 57 -3 4 -46
-4 -96 -18 -49 -13 -139 -37 -200 -54 -60 -16 -132 -36 -160 -45 -65 -19 -63
-20 -78 18 -26 64 -42 148 -28 156 6 4 123 38 259 76 136 37 248 68 249 69 1
1 -12 48 -28 106 -16 57 -26 107 -22 111 9 8 141 47 164 48 12 1 23 -24 43
-96z m-6891 -659 c-1 -10 -5 -48 -9 -84 -9 -86 -19 -110 -44 -110 -11 0 -35
-6 -53 -14 -32 -13 -33 -14 -45 -117 -8 -57 -16 -118 -18 -135 -5 -28 -2 -32
46 -58 49 -27 52 -30 46 -60 -4 -17 -9 -51 -12 -76 -8 -72 -14 -90 -26 -90 -6
0 -128 68 -272 151 -350 204 -358 208 -383 221 -27 13 -28 29 -11 130 7 47 17
72 27 76 32 13 736 189 746 187 6 -1 9 -11 8 -21z m6865 -63 c78 -24 173 -106
214 -184 105 -206 27 -440 -180 -538 -59 -28 -75 -32 -156 -32 -76 1 -101 5
-149 26 -79 36 -160 115 -200 196 -29 60 -32 75 -32 162 0 90 2 99 38 171 89
181 270 258 465 199z m-6930 -818 c12 -88 5 -120 -23 -109 -7 2 -59 -1 -116
-9 -57 -7 -108 -10 -113 -7 -4 2 -6 -22 -2 -54 3 -33 8 -93 12 -135 3 -42 9
-81 13 -87 4 -7 44 -7 130 0 68 5 127 6 132 1 4 -4 11 -47 15 -94 l7 -86 -99
-11 c-122 -14 -291 -31 -364 -37 -30 -3 -75 -7 -100 -10 -88 -10 -170 -14
-174 -7 -2 4 -7 48 -11 98 l-7 91 88 7 c49 4 112 9 139 12 l50 6 -3 41 c-1 23
-7 87 -14 141 l-11 99 -81 -7 c-44 -3 -106 -9 -138 -12 l-56 -7 -7 54 c-3 30
-7 74 -8 99 l-2 45 75 7 c41 4 122 11 180 17 58 5 164 15 235 21 72 7 132 14
134 16 2 2 28 4 56 4 l51 0 12 -87z m6545 -32 c23 -6 94 -19 157 -31 63 -12
133 -25 155 -30 22 -5 103 -21 180 -36 77 -14 144 -30 149 -35 13 -12 -14
-146 -32 -162 -14 -12 -135 -76 -329 -174 -51 -26 -93 -50 -93 -54 0 -3 66
-18 148 -34 191 -36 222 -44 222 -56 0 -6 -7 -48 -17 -95 -12 -61 -20 -84 -31
-84 -8 0 -160 29 -338 65 -178 36 -332 65 -344 65 -29 0 -34 21 -19 82 7 29
12 59 12 66 0 19 33 39 255 153 l202 104 -52 12 c-29 6 -69 14 -88 18 -81 13
-235 47 -242 53 -5 6 7 82 27 160 6 24 17 26 78 13z m-6369 -861 c20 -50 36
-92 36 -94 0 -2 -72 -64 -160 -137 -88 -73 -158 -135 -155 -137 2 -3 82 1 177
8 249 18 235 22 275 -75 17 -44 32 -85 33 -91 0 -7 -62 -58 -137 -115 -76 -57
-140 -106 -143 -109 -3 -3 -76 -59 -163 -124 -94 -71 -161 -116 -167 -110 -11
11 -70 160 -70 177 0 6 77 69 170 139 157 116 168 126 133 122 -132 -14 -266
-24 -329 -24 l-72 0 -31 78 -32 77 38 33 c21 18 95 78 165 134 70 56 126 103
124 105 -2 2 -66 -4 -142 -13 -77 -9 -170 -17 -208 -18 l-70 -1 -33 85 c-18
47 -31 90 -29 96 2 6 37 14 78 17 40 4 116 11 168 16 52 6 147 15 210 22 63 6
147 15 185 19 39 4 80 8 91 9 19 1 28 -13 58 -89z m6251 -20 c56 -52 53 -135
-5 -184 -40 -33 -80 -40 -124 -22 -91 38 -101 166 -17 220 37 24 114 16 146
-14z m479 -118 c35 -55 49 -108 43 -167 -15 -147 -146 -261 -268 -234 -95 21
-158 89 -180 194 -7 33 -21 70 -32 82 l-20 22 28 63 c39 89 42 92 90 65 46
-26 81 -74 95 -131 21 -85 51 -114 84 -81 23 24 20 43 -13 74 l-29 27 32 75
c17 41 35 80 39 87 13 20 103 -32 131 -76z m-697 -292 c102 -62 69 -215 -48
-227 -53 -5 -86 11 -116 56 -40 59 -23 133 40 171 41 25 83 25 124 0z m316
-226 c111 -53 206 -100 211 -104 7 -7 -40 -97 -93 -179 -7 -11 -45 12 -180
108 -94 67 -180 130 -192 140 l-22 18 32 56 c18 32 34 57 37 57 2 0 95 -43
207 -96z m-5180 -1141 c131 -77 152 -94 180 -148 47 -90 9 -226 -81 -290 -39
-27 -52 -30 -116 -30 -65 0 -77 3 -134 38 -35 20 -67 37 -72 37 -4 0 -20 -21
-36 -47 -15 -27 -28 -50 -30 -51 -2 -3 -122 63 -133 74 -2 1 52 94 120 206
166 276 168 278 179 278 6 0 61 -30 123 -67z m3779 -70 c18 -32 34 -61 36 -64
2 -4 -25 -24 -60 -45 -35 -20 -68 -41 -75 -46 -8 -6 19 -60 93 -184 57 -96
104 -178 104 -182 0 -9 -120 -78 -128 -74 -4 2 -51 78 -105 170 -55 92 -103
171 -107 176 -4 4 -39 -10 -77 -33 -38 -23 -72 -41 -75 -41 -9 0 -79 122 -73
128 9 9 420 251 427 252 3 0 21 -26 40 -57z m-3117 -264 c172 -102 205 -327
69 -463 -121 -121 -308 -122 -428 -2 -87 86 -115 205 -76 310 50 131 152 198
296 193 73 -3 88 -7 139 -38z m2516 -11 c19 -6 46 -20 60 -30 29 -22 63 -74
55 -87 -3 -4 -33 -19 -66 -31 -58 -22 -61 -22 -80 -5 -26 23 -95 15 -124 -15
-31 -31 -9 -40 109 -40 125 -1 186 -20 228 -72 34 -43 46 -112 27 -158 -7 -17
-33 -48 -57 -70 -88 -77 -226 -105 -309 -62 -41 21 -90 81 -76 94 4 3 35 17
69 31 53 21 64 23 74 11 21 -26 123 -8 144 26 16 25 -17 35 -118 36 -165 1
-231 32 -257 121 -18 59 -6 104 41 157 75 85 193 124 280 94z m-2031 -142
c154 -28 170 -33 226 -74 121 -89 131 -306 19 -430 -57 -63 -107 -84 -197 -81
-60 2 -264 32 -295 44 -14 5 -15 -6 38 313 22 129 39 238 39 243 0 13 20 11
170 -15z m1565 -266 c91 -138 165 -255 165 -260 0 -6 -10 -10 -22 -10 -13 0
-47 -7 -76 -14 -56 -15 -68 -11 -92 35 -12 21 -40 24 -103 10 -23 -6 -59 -13
-79 -16 -31 -5 -39 -11 -44 -33 -13 -62 -18 -67 -93 -81 -40 -7 -75 -10 -78
-7 -3 3 -1 34 5 68 26 149 92 503 97 519 4 11 23 21 53 27 104 22 84 39 267
-238z m-690 167 c46 -23 135 -105 135 -125 0 -4 -30 -22 -66 -40 l-66 -33 -38
35 c-87 78 -204 45 -240 -67 -10 -32 -9 -45 4 -81 9 -24 28 -54 42 -67 22 -21
35 -24 96 -24 67 0 71 1 103 37 l34 37 72 -32 71 -33 -34 -44 c-45 -59 -99
-95 -175 -116 -75 -20 -126 -14 -209 25 -106 50 -163 138 -165 258 -3 135 82
249 221 294 49 16 162 4 215 -24z"/>
<path d="M4882 8498 c-17 -198 -17 -204 11 -212 12 -3 56 -6 97 -6 56 0 83 5
106 19 56 34 86 138 64 220 -21 78 -62 102 -200 116 l-66 6 -12 -143z"/>
<path d="M4060 8563 c-175 -90 -107 -353 90 -353 139 0 229 139 171 265 -24
54 -62 89 -109 103 -60 18 -93 15 -152 -15z"/>
<path d="M3225 8296 c-50 -21 -103 -88 -110 -138 -8 -55 8 -118 40 -157 30
-35 100 -71 139 -71 90 0 174 62 195 144 22 90 -30 194 -112 225 -38 15 -115
13 -152 -3z"/>
<path d="M6875 7995 c-5 -2 -22 -6 -37 -9 -34 -8 -94 -59 -114 -97 -31 -61 -9
-175 42 -220 80 -70 221 -62 282 15 92 118 24 290 -123 309 -22 3 -44 4 -50 2z"/>
<path d="M4315 7663 c-41 -6 -257 -59 -326 -81 l-56 -17 14 -39 c45 -132 116
-241 227 -351 178 -177 379 -263 631 -270 185 -6 349 37 507 131 182 110 335
298 401 490 l14 41 -41 11 c-90 26 -314 80 -353 86 l-43 6 -30 -60 c-115 -227
-408 -323 -643 -211 -83 39 -181 135 -220 214 -16 32 -34 56 -40 56 -7 -1 -25
-4 -42 -6z"/>
<path d="M3755 7499 c-27 -11 -107 -47 -177 -81 -124 -60 -126 -61 -117 -87
20 -52 84 -186 91 -189 5 -2 8 -8 8 -13 0 -10 107 -179 119 -189 3 -3 33 -36
65 -73 174 -201 470 -381 726 -440 152 -36 202 -41 360 -41 158 0 208 5 360
41 254 59 553 240 726 440 32 37 62 70 65 73 35 31 169 269 211 376 l17 41
-127 61 c-107 52 -223 102 -236 102 -2 0 -11 -21 -21 -47 -72 -191 -216 -384
-359 -482 -12 -8 -23 -18 -26 -21 -3 -4 -32 -22 -65 -41 -185 -107 -339 -149
-548 -149 -120 0 -150 4 -267 32 -103 25 -283 110 -353 167 -191 154 -304 304
-373 494 -9 26 -19 47 -23 46 -3 0 -28 -9 -56 -20z"/>
<path d="M3255 7236 c-50 -34 -125 -87 -167 -118 -75 -56 -77 -59 -67 -85 50
-131 202 -371 310 -488 21 -22 47 -52 59 -67 35 -45 238 -216 326 -274 l81
-54 1031 0 1032 0 57 37 c135 86 289 219 392 338 107 123 136 162 223 301 26
41 118 219 118 228 0 8 -145 115 -247 184 -67 44 -93 57 -93 45 0 -24 -102
-228 -152 -303 -90 -137 -263 -325 -358 -390 -19 -13 -37 -27 -40 -30 -29 -33
-273 -166 -375 -203 -188 -70 -322 -92 -555 -92 -197 0 -256 7 -410 47 -102
26 -199 63 -295 111 -72 37 -212 122 -225 137 -3 3 -21 17 -40 30 -95 65 -269
254 -358 389 -42 64 -147 270 -154 302 -2 11 -25 1 -93 -45z"/>
<path d="M2794 6858 c-61 -62 -128 -135 -150 -163 -21 -27 -41 -52 -45 -55 -3
-3 -18 -23 -34 -45 -17 -22 -33 -42 -36 -45 -23 -18 -249 -383 -249 -401 0 -2
293 -4 651 -4 l650 0 -28 23 c-103 85 -205 180 -276 258 -112 124 -150 172
-199 249 -18 28 -35 52 -38 55 -8 6 -75 127 -107 193 -13 26 -24 47 -26 47 -2
0 -53 -51 -113 -112z"/>
<path d="M6739 6949 c-7 -13 -26 -49 -42 -79 -16 -30 -36 -68 -45 -85 -8 -16
-19 -32 -22 -35 -4 -3 -15 -20 -25 -39 -16 -32 -24 -43 -51 -74 -6 -7 -15 -19
-20 -28 -48 -84 -267 -311 -419 -434 l-37 -30 651 0 c358 0 651 1 651 2 0 6
-103 188 -120 212 -10 14 -41 62 -70 106 -29 44 -56 82 -59 85 -3 3 -19 23
-36 45 -16 22 -32 42 -35 45 -3 3 -35 41 -72 85 -37 44 -105 118 -151 164 -84
83 -85 83 -98 60z"/>
<path d="M4150 5086 c0 -8 -17 -21 -37 -29 l-38 -15 0 -683 c0 -639 -1 -684
-17 -687 -24 -5 -60 31 -52 51 5 14 -1 17 -39 17 -83 0 -77 -30 -77 359 l0
348 -23 21 c-13 12 -30 22 -38 22 -25 0 -39 123 -40 353 -1 116 -3 205 -6 196
-2 -8 -7 -127 -11 -265 l-7 -249 -107 -3 c-100 -2 -108 -4 -108 -22 0 -15 -7
-20 -30 -20 l-30 0 -2 -367 -3 -368 -82 -3 -82 -3 -3 58 c-3 52 -5 58 -27 61
-13 2 -26 12 -28 22 -7 26 -105 55 -133 40 -11 -6 -20 -17 -20 -25 0 -9 -10
-15 -25 -15 l-25 0 0 -157 c0 -168 -5 -203 -25 -203 -21 0 -25 25 -26 173 l0
142 -42 34 c-72 57 -137 121 -137 134 0 7 -15 19 -34 25 l-34 13 -5 187 c-4
169 -10 225 -39 345 l-9 37 -59 0 -60 0 0 55 c0 51 -2 56 -31 71 -26 13 -33
13 -40 3 -6 -11 -22 -10 -81 5 -40 10 -95 16 -123 14 l-50 -3 -5 -490 c-4
-361 -8 -497 -17 -518 -7 -16 -13 -51 -13 -79 0 -43 10 -70 63 -173 129 -247
295 -469 509 -682 241 -240 467 -401 773 -549 404 -196 794 -284 1250 -284
376 1 708 63 1050 197 371 146 678 347 961 628 243 243 399 454 540 735 58
116 56 97 22 260 -7 37 -13 121 -12 198 l1 132 -28 0 c-30 0 -33 4 -49 85 -5
28 -19 93 -30 145 -12 52 -25 118 -31 145 -5 28 -12 58 -15 68 -4 12 0 17 15
17 18 0 21 6 21 50 0 47 -2 50 -25 50 -28 0 -27 -3 -47 135 l-14 90 -119 0
-120 0 -7 -40 c-5 -22 -14 -71 -21 -110 -12 -59 -17 -70 -35 -73 -19 -3 -22
-10 -22 -53 0 -37 4 -49 15 -49 19 0 19 -6 0 -83 -14 -59 -75 -370 -75 -382 0
-3 -18 -5 -40 -5 l-41 0 7 -37 c3 -21 12 -65 19 -98 7 -33 12 -62 10 -65 -2
-3 -15 -62 -29 -130 -14 -69 -44 -213 -66 -319 -22 -107 -40 -196 -40 -198 0
-2 -4 -3 -10 -3 -6 0 -10 28 -10 65 0 51 -3 65 -15 65 -8 0 -15 -7 -15 -15 0
-8 -7 -15 -15 -15 -9 0 -15 -9 -15 -25 0 -16 -6 -25 -15 -25 -8 0 -15 5 -15
10 0 6 -22 10 -50 10 -44 0 -50 -3 -50 -21 0 -16 -5 -20 -27 -17 l-28 3 -3
745 -2 745 -44 24 c-24 13 -48 21 -55 17 -6 -4 -11 -1 -11 8 0 19 -21 20 -108
4 -47 -9 -66 -17 -70 -30 -4 -18 -12 -22 -69 -33 l-33 -7 0 -238 c0 -230 -1
-239 -20 -245 -11 -3 -24 -4 -30 0 -5 3 -18 -14 -30 -39 -18 -42 -20 -64 -20
-310 l0 -266 -65 0 -65 0 0 -51 0 -50 -32 3 -33 3 -3 78 c-3 69 -5 77 -22 77
-13 0 -20 7 -20 20 0 19 -5 21 -58 24 l-24 1 2 165 c0 121 -3 169 -12 182 -17
21 -188 32 -188 11 0 -9 -14 -13 -40 -13 -40 0 -40 0 -40 -39 0 -22 -4 -41
-10 -43 -6 -2 -12 -159 -16 -401 -4 -233 -11 -400 -17 -404 -18 -11 -27 23
-27 115 l0 92 -30 0 c-18 0 -33 6 -36 15 -4 8 -12 15 -20 15 -8 0 -14 5 -14
10 0 6 -6 9 -12 8 -10 -2 -14 115 -16 555 l-2 557 -55 0 c-48 0 -55 2 -55 20
0 11 -7 20 -15 20 -9 0 -15 10 -16 23 0 12 -13 42 -28 67 -22 36 -34 46 -62
50 -30 4 -34 9 -37 36 -2 22 -9 34 -23 37 -10 3 -19 12 -19 21 0 12 -10 16
-41 16 -46 0 -68 -19 -69 -58 0 -28 -34 -67 -50 -57 -7 4 -26 -7 -46 -26 -29
-28 -34 -40 -34 -79 0 -38 -5 -51 -28 -73 -15 -15 -31 -27 -35 -27 -4 0 -8
109 -9 243 l-3 242 -28 3 c-16 2 -31 10 -34 18 -8 20 -223 21 -223 0z m2945
-321 c3 -14 7 -36 10 -50 5 -24 4 -25 -46 -25 l-52 0 7 42 c9 54 12 58 46 58
24 0 31 -5 35 -25z m42 -217 c11 -41 10 -45 -23 -95 -19 -29 -38 -53 -42 -53
-15 0 -82 109 -82 133 0 51 8 57 74 57 l62 0 11 -42z m-144 -213 c17 -24 17
-25 -10 -64 -31 -45 -49 -53 -39 -18 3 12 6 41 6 65 0 48 15 55 43 17z m191
-57 c9 -58 -2 -61 -38 -13 l-27 35 22 32 c20 28 23 29 29 12 4 -10 10 -40 14
-66z m-61 -127 c20 -30 34 -58 31 -63 -8 -13 -164 -10 -164 3 0 18 83 130 90
122 4 -4 23 -32 43 -62z m51 -203 c-15 -27 -108 -138 -115 -138 -6 0 -109 136
-109 145 0 3 52 5 116 5 89 0 114 -3 108 -12z m-251 -182 c26 -34 47 -68 47
-75 0 -12 -147 -201 -156 -201 -6 0 2 69 16 140 5 25 14 80 21 123 7 42 15 77
18 77 4 0 27 -29 54 -64z m352 -66 c27 -160 34 -214 29 -219 -2 -2 -5 -2 -7 0
-2 2 -38 48 -81 101 l-78 98 53 70 c29 39 55 67 59 63 4 -4 15 -55 25 -113z"/>
<path d="M1250 5310 c-41 -9 -81 -19 -88 -21 -7 -2 27 -25 76 -51 l88 -48 10
70 c7 48 6 70 -1 69 -5 -1 -44 -9 -85 -19z"/>
<path d="M8355 5334 c-89 -33 -148 -137 -126 -222 25 -90 92 -147 181 -151
108 -5 190 77 190 189 0 91 -45 155 -129 185 -52 18 -64 18 -116 -1z"/>
<path d="M2843 1819 l-42 -69 52 -30 c29 -16 62 -30 74 -30 28 0 73 54 73 89
0 30 -13 45 -76 84 l-40 25 -41 -69z"/>
<path d="M3400 1552 c-49 -24 -80 -75 -80 -129 0 -56 23 -95 70 -122 97 -54
209 3 218 111 3 44 0 59 -20 88 -27 40 -79 70 -123 70 -16 0 -46 -8 -65 -18z"/>
<path d="M4060 1359 c0 -6 -9 -63 -20 -126 -17 -92 -18 -118 -8 -124 7 -4 40
-11 74 -14 106 -12 154 33 154 144 0 70 -30 104 -106 120 -71 14 -94 14 -94 0z"/>
<path d="M5459 1273 c0 -10 -4 -42 -8 -71 l-7 -52 35 6 c63 10 63 9 25 74 -20
33 -38 60 -40 60 -2 0 -4 -8 -5 -17z"/>
<path d="M7580 751 c0 -6 15 -11 33 -13 l32 -3 3 -93 c2 -68 6 -92 15 -89 8 2
13 35 15 95 l3 92 29 0 c17 0 30 5 30 10 0 6 -33 10 -80 10 -44 0 -80 -4 -80
-9z"/>
<path d="M7790 656 c0 -64 4 -106 10 -106 6 0 10 35 10 85 0 48 4 85 10 85 9
0 15 -18 41 -123 18 -74 39 -60 63 41 11 45 23 82 28 82 4 0 8 -38 8 -85 0
-69 3 -85 15 -85 12 0 15 18 15 105 l0 105 -29 0 c-27 0 -30 -3 -46 -70 -10
-41 -22 -69 -28 -67 -6 2 -18 32 -27 68 -14 57 -19 64 -43 67 l-27 3 0 -105z"/>
</g>
</svg>
