<?xml version="1.0" encoding="UTF-8" standalone="no"?>
<!-- Created with Inkscape (http://www.inkscape.org/) -->

<svg
   xmlns:dc="http://purl.org/dc/elements/1.1/"
   xmlns:cc="http://creativecommons.org/ns#"
   xmlns:rdf="http://www.w3.org/1999/02/22-rdf-syntax-ns#"
   xmlns:svg="http://www.w3.org/2000/svg"
   xmlns="http://www.w3.org/2000/svg"
   xmlns:sodipodi="http://sodipodi.sourceforge.net/DTD/sodipodi-0.dtd"
   xmlns:inkscape="http://www.inkscape.org/namespaces/inkscape"
   version="1.1"
   id="svg10"
   xml:space="preserve"
   width="2304"
   height="2304"
   viewBox="0 0 2304 2304"
   sodipodi:docname="WGHPodcastLogo.svg"
   inkscape:version="0.92.1 r15371"><metadata
     id="metadata16"><rdf:RDF><cc:Work
         rdf:about=""><dc:format>image/svg+xml</dc:format><dc:type
           rdf:resource="http://purl.org/dc/dcmitype/StillImage" /><dc:title></dc:title></cc:Work></rdf:RDF></metadata><defs
     id="defs14"><clipPath
       clipPathUnits="userSpaceOnUse"
       id="clipPath22"><path
         d="M 144,144.002 H 1584 V 1643.65 H 144 Z"
         id="path20"
         inkscape:connector-curvature="0" /></clipPath><clipPath
       clipPathUnits="userSpaceOnUse"
       id="clipPath30"><path
         d="M 0,1728 H 1728 V 0 H 0 Z"
         id="path28"
         inkscape:connector-curvature="0" /></clipPath><clipPath
       clipPathUnits="userSpaceOnUse"
       id="clipPath162"><path
         d="m 686.683,1285.243 c -54.247,-22.944 -102.965,-55.789 -144.799,-97.625 v 0 c -41.836,-41.835 -74.682,-90.552 -97.626,-144.799 v 0 c -23.755,-56.163 -35.8,-115.823 -35.8,-177.32 v 0 c 0,-61.496 12.045,-121.155 35.8,-177.319 v 0 c 22.944,-54.245 55.79,-102.963 97.626,-144.798 v 0 c 41.834,-41.835 90.552,-74.681 144.799,-97.626 v 0 c 56.163,-23.755 115.822,-35.8 177.319,-35.8 v 0 c 61.497,0 121.156,12.045 177.319,35.8 v 0 c 54.246,22.945 102.964,55.791 144.799,97.626 v 0 c 41.835,41.835 74.681,90.553 97.626,144.798 v 0 c 23.755,56.164 35.8,115.823 35.8,177.319 v 0 c 0,61.497 -12.045,121.157 -35.8,177.32 v 0 c -22.945,54.247 -55.791,102.964 -97.626,144.799 v 0 c -41.835,41.836 -90.553,74.681 -144.799,97.625 v 0 c -56.163,23.756 -115.822,35.801 -177.319,35.801 v 0 c -61.497,0 -121.156,-12.045 -177.319,-35.801"
         id="path160"
         inkscape:connector-curvature="0" /></clipPath><clipPath
       clipPathUnits="userSpaceOnUse"
       id="clipPath176"><path
         d="m 408.424,865.5 c 0,-251.59 203.954,-455.544 455.544,-455.544 v 0 c 251.589,0 455.544,203.954 455.544,455.544 v 0 c 0,251.59 -203.955,455.544 -455.544,455.544 v 0 c -251.59,0 -455.544,-203.954 -455.544,-455.544"
         id="path174"
         inkscape:connector-curvature="0" /></clipPath><clipPath
       clipPathUnits="userSpaceOnUse"
       id="clipPath200"><path
         d="M 0,1728 H 1728 V 0 H 0 Z"
         id="path198"
         inkscape:connector-curvature="0" /></clipPath></defs><sodipodi:namedview
     pagecolor="#ffffff"
     bordercolor="#666666"
     borderopacity="1"
     objecttolerance="10"
     gridtolerance="10"
     guidetolerance="10"
     inkscape:pageopacity="0"
     inkscape:pageshadow="2"
     inkscape:window-width="1920"
     inkscape:window-height="1017"
     id="namedview12"
     showgrid="false"
     inkscape:zoom="0.36805556"
     inkscape:cx="1152"
     inkscape:cy="1369.3585"
     inkscape:window-x="-8"
     inkscape:window-y="-8"
     inkscape:window-maximized="1"
     inkscape:current-layer="g18" /><g
     id="g18"
     inkscape:groupmode="layer"
     inkscape:label="WGH Podcast Logo"
     transform="matrix(1.3333333,0,0,-1.3333333,0,2304)"
     clip-path="url(#clipPath22)"><g
       id="g24"><g
         id="g26"
         clip-path="url(#clipPath30)"><g
           id="g32"
           transform="translate(1557.894,865.5)"><path
             d="m 0,0 c 0,-383.245 -310.681,-693.927 -693.926,-693.927 -383.245,0 -693.927,310.682 -693.927,693.927 0,383.245 310.682,693.926 693.927,693.926 C -310.681,693.926 0,383.245 0,0"
             style="fill:#12284e;fill-opacity:1;fill-rule:nonzero;stroke:none"
             id="path34"
             inkscape:connector-curvature="0" /></g><g
           id="g36"
           transform="translate(1319.5117,865.5)"><path
             d="m 0,0 c 0,-251.59 -203.954,-455.544 -455.544,-455.544 -251.59,0 -455.544,203.954 -455.544,455.544 0,251.59 203.954,455.544 455.544,455.544 C -203.954,455.544 0,251.59 0,0"
             style="fill:#fedf00;fill-opacity:1;fill-rule:nonzero;stroke:none"
             id="path38"
             inkscape:connector-curvature="0" /></g><g
           id="g40"
           transform="translate(864,171.5977)"><path
             d="m 0,0 c -381.79,0 -692.4,310.611 -692.4,692.4 0,381.794 310.61,692.405 692.4,692.405 381.793,0 692.404,-310.611 692.404,-692.405 C 692.404,310.611 381.793,0 0,0 m 0,1402.937 c -391.789,0 -710.537,-318.744 -710.537,-710.537 0,-391.788 318.748,-710.532 710.537,-710.532 391.792,0 710.536,318.744 710.536,710.532 0,391.793 -318.744,710.537 -710.536,710.537"
             style="fill:#231f20;fill-opacity:1;fill-rule:nonzero;stroke:none"
             id="path42"
             inkscape:connector-curvature="0" /></g><g
           id="g44"
           transform="translate(864,207.8164)"><path
             d="m 0,0 c -361.82,0 -656.182,294.361 -656.182,656.182 0,361.82 294.362,656.182 656.182,656.182 361.824,0 656.186,-294.362 656.186,-656.182 C 656.186,294.361 361.824,0 0,0 m 0,1319.414 c -365.704,0 -663.229,-297.524 -663.229,-663.232 0,-365.704 297.525,-663.229 663.229,-663.229 365.708,0 663.232,297.525 663.232,663.229 0,365.708 -297.524,663.232 -663.232,663.232"
             style="fill:#f5811f;fill-opacity:1;fill-rule:nonzero;stroke:none"
             id="path46"
             inkscape:connector-curvature="0" /></g><g
           id="g48"
           transform="translate(864,173.3564)"><path
             d="m 0,0 c -380.821,0 -690.646,309.821 -690.646,690.642 0,380.824 309.825,690.646 690.646,690.646 380.825,0 690.646,-309.822 690.646,-690.646 C 690.646,309.821 380.825,0 0,0 m 0,1410.642 c -397.008,0 -720,-322.989 -720,-720 0,-397.004 322.992,-719.996 720,-719.996 397.008,0 720,322.992 720,719.996 0,397.011 -322.992,720 -720,720"
             style="fill:#f5811f;fill-opacity:1;fill-rule:nonzero;stroke:none"
             id="path50"
             inkscape:connector-curvature="0" /></g><g
           id="g52"
           transform="translate(428.5068,623.9287)"><path
             d="m 0,0 -92.102,-70.031 -11.179,28.289 55.144,41.148 -69.422,-5.023 -9.343,23.64 53.964,43.75 -68.242,-7.625 -11.23,28.422 115.09,11.86 10.863,-27.492 -52.344,-43.571 67.934,4.125 z"
             style="fill:#ffffff;fill-opacity:1;fill-rule:nonzero;stroke:none"
             id="path54"
             inkscape:connector-curvature="0" /></g><g
           id="g56"
           transform="translate(257.2573,844.8574)"><path
             d="m 0,0 110.925,10.57 2.711,-28.445 -41.242,-3.93 4.309,-45.217 41.242,3.929 2.695,-28.304 L 9.715,-101.968 7.02,-73.663 50.109,-69.562 45.8,-24.336 2.711,-28.444 Z"
             style="fill:#ffffff;fill-opacity:1;fill-rule:nonzero;stroke:none"
             id="path58"
             inkscape:connector-curvature="0" /></g><g
           id="g60"
           transform="translate(297.7959,932.0293)"><path
             d="M 0,0 30.648,-16.742 34.07,7.43 Z M -34.207,19.117 82.359,48.031 77.992,17.211 61.02,13.414 54.871,-29.976 70.125,-38.343 65.762,-69.156 -38.171,-8.875 Z"
             style="fill:#ffffff;fill-opacity:1;fill-rule:nonzero;stroke:none"
             id="path62"
             inkscape:connector-curvature="0" /></g><g
           id="g64"
           transform="translate(269.1011,1001.4824)"><path
             d="M 0,0 31.652,92.703 57.867,83.75 46.656,50.914 125.843,23.875 116.613,-3.148 37.425,23.891 26.214,-8.945 Z"
             style="fill:#ffffff;fill-opacity:1;fill-rule:nonzero;stroke:none"
             id="path66"
             inkscape:connector-curvature="0" /></g><g
           id="g68"
           transform="translate(356.8115,1098.2397)"><path
             d="m 0,0 -46.176,18.875 12.645,24.656 42.265,-26.5 z"
             style="fill:#ffffff;fill-opacity:1;fill-rule:nonzero;stroke:none"
             id="path70"
             inkscape:connector-curvature="0" /></g><g
           id="g72"
           transform="translate(413.1514,1144.9351)"><path
             d="m 0,0 0.582,-0.414 c 3.492,-2.477 11.656,-1.094 19.176,9.508 6.199,8.734 5.269,13.593 2.594,15.492 C 18.508,27.32 12.957,24.43 1.461,16.125 -13.563,5.07 -34.02,-8.953 -52.77,4.352 c -17.351,12.32 -17.687,34.789 -2.976,55.523 15.043,21.195 37.66,29.133 55.711,16.32 l 1.281,-0.906 -16.117,-22.711 -0.813,0.578 c -4.425,3.141 -12.89,2.321 -19.586,-7.117 -5.617,-7.914 -4.707,-13.289 -1.675,-15.437 3.609,-2.563 8.445,0.304 19.859,8.492 13.352,9.437 36.008,25.57 55.922,11.445 C 56.539,37.977 54.945,15.992 40.234,-4.734 24.781,-26.516 2.75,-36.094 -15.066,-23.453 l -1.051,0.75 z"
             style="fill:#ffffff;fill-opacity:1;fill-rule:nonzero;stroke:none"
             id="path74"
             inkscape:connector-curvature="0" /></g><g
           id="g76"
           transform="translate(511.6626,1302.8643)"><path
             d="m 0,0 42.684,32.586 39.433,-51.656 -17.82,-13.609 -6.328,8.288 c 0.711,-9.874 -5.656,-20.124 -14.739,-27.062 -25.656,-19.586 -62.773,-15.218 -82.101,10.094 -19.324,25.32 -13.757,62.273 11.898,81.859 15.215,11.617 34.582,14.727 51.59,10.102 L 15.648,23.984 c -8.675,2.18 -18.171,0.5 -25.894,-5.39 -13.395,-10.227 -15.918,-29.047 -5.692,-42.446 10.227,-13.39 29.047,-15.921 42.442,-5.687 7.945,6.062 11.723,15.234 11.246,24.57 l -1.906,2.5 -21.457,-16.383 z"
             style="fill:#ffffff;fill-opacity:1;fill-rule:nonzero;stroke:none"
             id="path78"
             inkscape:connector-curvature="0" /></g><g
           id="g80"
           transform="translate(642.2681,1338.6924)"><path
             d="M 0,0 C 15.718,6.828 22.421,24.375 15.707,39.828 8.996,55.281 -8.402,62.367 -24.117,55.539 -39.445,48.883 -46.539,31.164 -39.828,15.711 -33.113,0.258 -15.324,-6.656 0,0 M -35.098,80.82 C -5.234,93.789 29.48,80.531 42.167,51.32 54.851,22.109 40.843,-12.305 10.98,-25.281 c -29.472,-12.797 -64.582,0.289 -77.265,29.5 -12.688,29.211 1.715,63.797 31.187,76.601"
             style="fill:#ffffff;fill-opacity:1;fill-rule:nonzero;stroke:none"
             id="path82"
             inkscape:connector-curvature="0" /></g><g
           id="g84"
           transform="translate(764.5488,1378.7705)"><path
             d="M 0,0 C 16.918,2.742 27.742,18.094 25.051,34.734 22.355,51.367 7.238,62.523 -9.68,59.781 -26.176,57.109 -37.426,41.688 -34.73,25.055 -32.035,8.414 -16.496,-2.672 0,0 M -14.086,86.992 C 18.062,92.195 48.441,70.781 53.531,39.344 58.621,7.898 36.551,-22.008 4.406,-27.211 -27.316,-32.344 -58.121,-11 -63.211,20.437 c -5.09,31.446 17.402,61.422 49.125,66.555"
             style="fill:#ffffff;fill-opacity:1;fill-rule:nonzero;stroke:none"
             id="path86"
             inkscape:connector-curvature="0" /></g><g
           id="g88"
           transform="translate(872.4546,1446.6924)"><path
             d="m 0,0 -4.461,-55.938 20.922,-1.664 c 16.937,-1.351 26.812,9.321 28.141,25.969 1.328,16.656 -6.743,28.617 -23.68,29.969 z m -26.266,29.882 51.528,-4.109 c 34.726,-2.766 50.5,-29.523 48.093,-59.695 -2.421,-30.32 -22.222,-54.094 -56.949,-51.32 l -51.527,4.109 z"
             style="fill:#ffffff;fill-opacity:1;fill-rule:nonzero;stroke:none"
             id="path90"
             inkscape:connector-curvature="0" /></g><g
           id="g92"
           transform="translate(1132.1885,1412.5674)"><path
             d="m 0,0 -43.512,-102.547 -26.293,11.156 16.176,38.125 -41.805,17.743 -16.179,-38.125 -26.164,11.101 43.515,102.547 26.16,-11.102 -16.902,-39.836 41.809,-17.742 16.902,39.836 z"
             style="fill:#ffffff;fill-opacity:1;fill-rule:nonzero;stroke:none"
             id="path94"
             inkscape:connector-curvature="0" /></g><g
           id="g96"
           transform="translate(1162.6885,1293.8564)"><path
             d="M 0,0 C 13.695,-10.297 32.262,-7.461 42.39,6.008 52.515,19.477 50.082,38.102 36.386,48.398 23.031,58.438 4.121,55.859 -6.004,42.391 -16.129,28.922 -13.355,10.039 0,0 M 52.949,70.422 C 78.972,50.859 84.582,14.125 65.445,-11.328 46.308,-36.781 9.461,-41.593 -16.562,-22.023 -42.242,-2.719 -48.195,34.273 -29.059,59.727 -9.922,85.18 27.27,89.734 52.949,70.422"
             style="fill:#ffffff;fill-opacity:1;fill-rule:nonzero;stroke:none"
             id="path98"
             inkscape:connector-curvature="0" /></g><g
           id="g100"
           transform="translate(1354.2153,1225.7241)"><path
             d="m 0,0 -48.391,-39.82 c -22.156,-18.227 -50.668,-18.399 -71.8,7.281 -21.223,25.797 -15.387,53.523 6.769,71.75 l 48.391,39.82 18.14,-22.047 -47.066,-38.726 c -12.457,-10.25 -14.395,-21.828 -4.961,-33.289 9.523,-11.578 21.348,-12.016 33.801,-1.766 l 47.07,38.727 z"
             style="fill:#ffffff;fill-opacity:1;fill-rule:nonzero;stroke:none"
             id="path102"
             inkscape:connector-curvature="0" /></g><g
           id="g104"
           transform="translate(1318.8325,1138.3726)"><path
             d="m 0,0 -0.633,-0.32 c -3.812,-1.953 -6.355,-9.836 -0.433,-21.399 4.879,-9.531 9.617,-10.953 12.539,-9.453 4.195,2.149 4.199,8.399 2.148,22.43 -2.859,18.422 -5.84,43.039 14.621,53.515 18.934,9.696 39.015,-0.39 50.593,-23.007 11.844,-23.133 8.43,-46.852 -11.265,-56.938 l -1.399,-0.711 -12.687,24.774 0.891,0.461 C 59.203,-8.18 62.382,-0.297 57.113,10 52.691,18.641 47.5,20.312 44.199,18.625 40.258,16.602 40.566,10.992 42.551,-2.914 44.75,-19.109 48.59,-46.656 26.859,-57.781 c -19.316,-9.89 -38.07,1.68 -49.652,24.297 -12.164,23.765 -10.48,47.726 8.965,57.679 l 1.14,0.586 z"
             style="fill:#ffffff;fill-opacity:1;fill-rule:nonzero;stroke:none"
             id="path106"
             inkscape:connector-curvature="0" /></g><g
           id="g108"
           transform="translate(1430.7891,1092.459)"><path
             d="m 0,0 26.125,-94.375 -26.687,-7.391 -9.258,33.43 -80.617,-22.312 -7.617,27.515 80.617,22.313 -9.254,33.429 z"
             style="fill:#ffffff;fill-opacity:1;fill-rule:nonzero;stroke:none"
             id="path110"
             inkscape:connector-curvature="0" /></g><g
           id="g112"
           transform="translate(1382.7227,909.6938)"><path
             d="M 0,0 C 0.82,-17.109 14.852,-29.578 31.676,-28.773 48.5,-27.969 61.273,-14.203 60.453,2.906 59.652,19.585 45.602,32.484 28.777,31.679 11.953,30.875 -0.801,16.687 0,0 M 87.969,4.218 C 89.527,-28.289 64.852,-56.047 33.055,-57.579 1.262,-59.102 -25.96,-33.82 -27.519,-1.312 -29.054,30.765 -4.398,58.953 27.395,60.484 59.191,62.007 86.43,36.304 87.969,4.218"
             style="fill:#ffffff;fill-opacity:1;fill-rule:nonzero;stroke:none"
             id="path114"
             inkscape:connector-curvature="0" /></g><g
           id="g116"
           transform="translate(1362.4731,838.5996)"><path
             d="m 0,0 109.308,-21.522 -4.691,-23.821 -70.7,-36.742 61.098,-12.023 -5.488,-27.891 -109.308,21.523 4.664,23.68 70.558,36.766 -60.957,12 z"
             style="fill:#ffffff;fill-opacity:1;fill-rule:nonzero;stroke:none"
             id="path118"
             inkscape:connector-curvature="0" /></g><g
           id="g120"
           transform="translate(1369.0278,690.4209)"><path
             d="m 0,0 4.211,-1.773 c 12.765,-5.391 15.734,-16.719 17.847,-25.672 1.207,-4.852 2.332,-8.43 6.149,-10.039 2.632,-1.11 6.964,-0.766 9.019,4.101 1.887,4.477 0.824,10.039 -6.676,13.203 l -1.183,0.5 10.832,25.664 4.34,-1.836 C 65.988,-4.906 68.332,-28.375 61.39,-44.82 54.222,-61.797 36.203,-72.172 17.515,-64.289 4.094,-58.625 0.168,-47.352 -1.531,-38.883 c -1.594,6.875 -1.914,13.828 -7.703,16.274 l -0.262,0.109 z m -10.359,-9.109 c -3.832,-9.086 -14.496,-13.414 -23.579,-9.586 -9.078,3.836 -13.414,14.5 -9.582,23.578 3.832,9.078 14.5,13.414 23.579,9.586 9.082,-3.836 13.414,-14.5 9.582,-23.578"
             style="fill:#ffffff;fill-opacity:1;fill-rule:nonzero;stroke:none"
             id="path122"
             inkscape:connector-curvature="0" /></g><g
           id="g124"
           transform="translate(1386.3242,560.6709)"><path
             d="m 0,0 -57.703,41.555 9.661,16.351 64.237,-30.492 z M -58.859,53.352 C -63.871,44.867 -75.019,42 -83.5,47.016 c -8.484,5.007 -11.351,16.156 -6.339,24.64 5.011,8.477 16.16,11.344 24.64,6.336 8.485,-5.015 11.352,-16.156 6.34,-24.64"
             style="fill:#ffffff;fill-opacity:1;fill-rule:nonzero;stroke:none"
             id="path126"
             inkscape:connector-curvature="0" /></g><g
           id="g128"
           transform="translate(565.7173,411.6953)"><path
             d="m 0,0 -13.594,-22.641 12.598,-7.57 c 7.957,-4.773 13.851,-1.617 17.777,4.922 3.528,5.875 3.778,12.945 -4.179,17.719 z M -8.59,28.617 23.996,9.047 C 43.602,-2.727 44.902,-21.812 35.973,-36.688 26.586,-52.313 9.301,-59.852 -10.305,-48.078 l -13.64,8.195 -10.071,-16.765 -18.945,11.375 z"
             style="fill:#ffffff;fill-opacity:1;fill-rule:nonzero;stroke:none"
             id="path130"
             inkscape:connector-curvature="0" /></g><g
           id="g132"
           transform="translate(646.7407,317.4844)"><path
             d="M 0,0 C 12.421,-4.656 25.593,1.5 30.175,13.719 34.757,25.93 28.882,39.234 16.46,43.891 4.347,48.43 -9.133,42.391 -13.715,30.18 -18.297,17.961 -12.109,4.539 0,0 M 23.953,63.867 C 47.554,55.023 59.742,28.961 51.085,5.875 42.429,-17.211 16.109,-28.828 -7.492,-19.977 -30.781,-11.242 -43.281,14.93 -34.625,38.016 -25.969,61.102 0.66,72.602 23.953,63.867"
             style="fill:#ffffff;fill-opacity:1;fill-rule:nonzero;stroke:none"
             id="path134"
             inkscape:connector-curvature="0" /></g><g
           id="g136"
           transform="translate(745.6934,333.25)"><path
             d="m 0,0 -7.148,-42.836 16.023,-2.68 c 12.973,-2.164 21.297,5.414 23.426,18.164 2.129,12.758 -3.305,22.516 -16.278,24.68 z m -18.273,24.789 39.46,-6.586 C 47.785,13.766 58.176,-7.914 54.32,-31.023 50.445,-54.242 33.602,-71.266 7,-66.82 l -39.461,6.578 z"
             style="fill:#ffffff;fill-opacity:1;fill-rule:nonzero;stroke:none"
             id="path138"
             inkscape:connector-curvature="0" /></g><g
           id="g140"
           transform="translate(906.8257,280.1406)"><path
             d="m 0,0 c -7.219,-14.836 -22.594,-25.203 -40.383,-25.555 -24.855,-0.492 -46.132,19.196 -46.624,43.828 -0.489,24.641 19.987,45.157 44.847,45.657 17.785,0.351 33.34,-9.399 41.25,-23.719 l -19.926,-9.453 c -4.012,7.211 -11.844,12.031 -20.902,11.851 -12.926,-0.257 -23.211,-10.851 -22.953,-23.89 0.257,-13.032 10.961,-23.211 23.886,-22.953 9.168,0.179 16.692,5.304 20.414,12.672 z"
             style="fill:#ffffff;fill-opacity:1;fill-rule:nonzero;stroke:none"
             id="path142"
             inkscape:connector-curvature="0" /></g><g
           id="g144"
           transform="translate(960.5952,322.5156)"><path
             d="m 0,0 -4.309,-26.672 18.516,3.735 z m 5.125,29.883 51.152,-77.571 -23.605,-4.765 -7.145,11.406 -33.242,-6.711 -2.164,-13.281 -23.605,-4.766 17.172,91.36 z"
             style="fill:#ffffff;fill-opacity:1;fill-rule:nonzero;stroke:none"
             id="path146"
             inkscape:connector-curvature="0" /></g><g
           id="g148"
           transform="translate(1047.8174,311.3047)"><path
             d="m 0,0 0.199,-0.516 c 1.196,-3.093 7.051,-5.687 16.426,-2.062 7.727,2.984 9.203,6.516 8.289,8.883 -1.312,3.398 -6.129,3.914 -17.086,3.468 -14.406,-0.71 -33.586,-1.015 -39.996,15.571 -5.925,15.351 3.457,29.984 21.793,37.07 18.754,7.242 36.727,2.703 42.895,-13.266 l 0.437,-1.132 -20.09,-7.766 -0.277,0.727 c -1.512,3.914 -7.32,6.992 -15.668,3.773 -7.004,-2.703 -8.711,-6.562 -7.676,-9.242 C -9.523,32.313 -5.176,32.102 5.68,32.5 18.32,32.883 39.82,33.617 46.629,16 52.676,0.336 42.262,-13.156 23.922,-20.242 4.656,-27.687 -13.645,-24.453 -19.73,-8.688 l -0.36,0.93 z"
             style="fill:#ffffff;fill-opacity:1;fill-rule:nonzero;stroke:none"
             id="path150"
             inkscape:connector-curvature="0" /></g><g
           id="g152"
           transform="translate(1083.9033,388.5859)"><path
             d="M 0,0 65.316,38.523 76.211,20.055 53.074,6.406 85.98,-49.391 66.938,-60.617 34.031,-4.82 10.895,-18.469 Z"
             style="fill:#ffffff;fill-opacity:1;fill-rule:nonzero;stroke:none"
             id="path154"
             inkscape:connector-curvature="0" /></g></g></g><g
       id="g156"><g
         id="g158"
         clip-path="url(#clipPath162)"><path
           d="M 1320.361,1060.005 H 408.719 v 275.407 h 911.642 z"
           style="fill:#b01e23;fill-opacity:1;fill-rule:nonzero;stroke:none"
           id="path164"
           inkscape:connector-curvature="0" /><path
           d="M 1361.236,862.33 H 366.693 v 199.708 h 994.543 z"
           style="fill:#f5811f;fill-opacity:1;fill-rule:nonzero;stroke:none"
           id="path166"
           inkscape:connector-curvature="0" /><path
           d="M 1359.785,588.074 H 374.641 v 274.36 h 985.144 z"
           style="fill:#fedf00;fill-opacity:1;fill-rule:nonzero;stroke:none"
           id="path168"
           inkscape:connector-curvature="0" /></g></g><g
       id="g170"><g
         id="g172"
         clip-path="url(#clipPath176)"><g
           id="g178"
           transform="translate(863.9678,1249.334)"><path
             d="m 0,0 c 40.578,0 73.477,32.899 73.477,73.477 0,40.577 -32.899,73.477 -73.477,73.477 -40.578,0 -73.477,-32.9 -73.477,-73.477 C -73.477,32.899 -40.578,0 0,0"
             style="fill:#ffffff;fill-opacity:1;fill-rule:nonzero;stroke:none"
             id="path180"
             inkscape:connector-curvature="0" /></g><g
           id="g182"
           transform="translate(863.9663,1468.0747)"><path
             d="m 0,0 c -80.097,0 -145.261,-65.164 -145.261,-145.265 0,-80.097 65.164,-145.261 145.261,-145.261 80.102,0 145.266,65.164 145.266,145.261 C 145.266,-65.164 80.102,0 0,0 m 0,-306.526 c -88.921,0 -161.261,72.339 -161.261,161.261 C -161.261,-56.343 -88.921,16 0,16 88.922,16 161.265,-56.343 161.265,-145.265 161.265,-234.187 88.922,-306.526 0,-306.526"
             style="fill:#ffffff;fill-opacity:1;fill-rule:nonzero;stroke:none"
             id="path184"
             inkscape:connector-curvature="0" /></g><g
           id="g186"
           transform="translate(863.9663,1547.8638)"><path
             d="m 0,0 c -124.093,0 -225.05,-100.96 -225.05,-225.054 0,-124.093 100.957,-225.05 225.05,-225.05 124.094,0 225.054,100.957 225.054,225.05 C 225.054,-100.96 124.094,0 0,0 m 0,-466.104 c -132.914,0 -241.05,108.136 -241.05,241.05 C -241.05,-92.136 -132.914,16 0,16 132.918,16 241.054,-92.136 241.054,-225.054 241.054,-357.968 132.918,-466.104 0,-466.104"
             style="fill:#ffffff;fill-opacity:1;fill-rule:nonzero;stroke:none"
             id="path188"
             inkscape:connector-curvature="0" /></g><g
           id="g190"
           transform="translate(863.9663,1627.6489)"><path
             d="m 0,0 c -168.085,0 -304.835,-136.75 -304.835,-304.839 0,-168.09 136.75,-304.839 304.835,-304.839 168.089,0 304.839,136.749 304.839,304.839 C 304.839,-136.75 168.089,0 0,0 m 0,-625.678 c -176.91,0 -320.835,143.929 -320.835,320.839 C -320.835,-127.93 -176.91,16 0,16 176.91,16 320.839,-127.93 320.839,-304.839 320.839,-481.749 176.91,-625.678 0,-625.678"
             style="fill:#ffffff;fill-opacity:1;fill-rule:nonzero;stroke:none"
             id="path192"
             inkscape:connector-curvature="0" /></g></g></g><g
       id="g194"><g
         id="g196"
         clip-path="url(#clipPath200)"><g
           id="g202"
           transform="translate(863.9678,426.3828)"><path
             d="m 0,0 c -242.129,0 -439.117,196.984 -439.117,439.113 0,226.548 172.449,413.559 392.969,436.697 15.169,1.589 30.563,2.42 46.148,2.42 15.585,0 30.979,-0.831 46.152,-2.42 C 266.668,852.672 439.117,665.661 439.117,439.113 439.117,196.984 242.129,0 0,0 M 44.587,896.982 C 29.91,898.398 15.039,899.151 0,899.151 c -15.042,0 -29.91,-0.753 -44.583,-2.169 -232.821,-22.498 -415.451,-219.246 -415.451,-457.869 0,-253.661 206.373,-460.03 460.034,-460.03 253.665,0 460.034,206.369 460.034,460.03 0,238.623 -182.626,435.371 -415.447,457.869"
             style="fill:#ffffff;fill-opacity:1;fill-rule:nonzero;stroke:none"
             id="path204"
             inkscape:connector-curvature="0" /></g><g
           id="g206"
           transform="translate(1176.0474,708.3486)"><path
             d="M 0,0 16.328,-21.116 -8.926,-53.117 Z m 14.368,82.311 6.749,-8.708 -9.579,-13.062 z m 6.531,34.158 h 18.069 l 1.037,-4.355 h -0.001 l 2.229,-9.361 -10.667,-15.674 -13.062,18.069 z m 3.701,29.606 h 8.925 l 3.048,-13.279 h -14.15 z m 24.164,-86.643 -9.578,13.061 6.748,8.708 z M 58.499,-1.503 67.425,-54.621 42.172,-22.62 Z M 18.504,39.839 31.566,59.432 44.628,39.839 Z M 47.458,19.085 29.316,-3.41 12.917,19.085 Z M -623.951,-156.43 c 40.364,-40.363 87.368,-72.053 139.707,-94.192 54.188,-22.919 111.748,-34.54 171.082,-34.54 59.334,0 116.894,11.621 171.083,34.54 52.338,22.139 99.343,53.829 139.706,94.192 37.438,37.439 67.4,80.598 89.213,128.42 l -8.614,42.596 2.902,32.22 h -9.869 l -14.803,68.792 h 5.225 l 1.451,17.125 h -8.708 l -5.805,34.831 H 11.465 L 5.08,132.723 H -2.467 V 116.469 H 3.047 L -11.175,45.063 h -12.191 l 5.515,-29.896 -19.157,-92.884 c -3.483,-17.416 -3.774,-2.613 -3.774,-2.613 v 9.869 c 0,7.257 -2.902,5.516 -2.902,5.516 -2.903,0 -1.742,-4.355 -1.742,-4.355 l -4.934,-0.58 v -6.677 l -4.5,-0.29 v 3.484 l -15.674,-0.436 v -6.966 l -8.272,0.435 v 228.582 l -11.32,6.531 -6.531,-0.871 v 5.225 l -23.512,-3.919 c -6.095,-0.87 -3.918,-5.659 -3.918,-5.659 l -16.545,-4.355 V 72.058 h -7.837 l -6.096,-12.191 v -81.854 h -19.737 V -36.79 h -10.16 v 23.801 h -6.095 v 6.095 h -4.354 c -3.193,4.065 -4.935,-0.58 -4.935,-0.58 h -3.773 v 52.828 l -2.902,4.354 -27.576,0.871 v -3.483 h -12.771 V 33.743 h -2.903 v -45.28 l -1.742,-1.017 V -86.57 c -0.29,-3.628 -2.031,-2.758 -2.031,-2.758 -2.032,0 -1.742,2.322 -1.742,2.322 v 26.414 l -2.322,3.484 h -9.288 v 3.773 h -4.645 v 2.612 h -5.152 v 171.11 h -16.763 v 5.442 h -4.135 v 6.314 l -9.579,16.327 h -9.796 v 5.878 l -1.524,4.789 h -5.008 v 4.789 h -15.674 v -4.354 h -3.483 v -9.143 h -2.612 v -3.918 l -7.402,0.87 -9.143,-10.885 v -13.061 l -9.143,-9.58 v 73.147 l -2.177,4.354 h -7.837 v 3.918 h -36.138 v -4.354 l -11.175,-5.224 V -24.019 h -5.515 v 2.613 h -2.903 c -2.322,1.161 0,7.547 0,7.547 l -19.157,1.741 V 94.264 l -6.531,6.748 h -5.225 v 9.143 l -1.959,1.741 -1.524,74.816 c -0.871,2.104 -1.887,0 -1.887,0 l -2.902,-80.693 h -31.929 v -5.805 h -10.449 V -12.989 h -23.802 V 3.847 l -9.289,2.031 v 4.644 l -20.028,6.386 v -3.192 h -4.063 V 8.2 h -8.998 v -48.763 c -0.29,-8.128 -2.903,-6.676 -2.903,-6.676 -2.322,0.29 -2.177,5.659 -2.177,5.659 v 41.363 l -27.865,24.382 v 4.354 l -11.32,4.354 v 47.893 l -6.967,39.185 -19.157,0.436 v 16.109 l -10.885,6.02 v -3.843 c -11.32,0 -17.39,3.843 -17.39,3.843 h -22.314 V -3.32 L -711,-17.664 v -14.99 c 21.617,-45.972 50.828,-87.555 87.049,-123.776"
             style="fill:#12284e;fill-opacity:1;fill-rule:nonzero;stroke:none"
             id="path208"
             inkscape:connector-curvature="0" /></g></g></g></g></svg>